# xmcd
# 
# Track frame offsets:
#     182
#     32815
#     52122
#     80482
#     100995
#     131322
#     153637
#     179827
#     197960
#     225322
#     246270
#     283892
# 
# Disc length: 4046
# 
# Revision: 3
# Processed by: cddbd v1.5.2PL0 Copyright (c) Steve Scherf et al.
# Submitted via: fre:ac v1.1beta1pre4
# 
DISCID=ae0fcc0c
DTITLE=Rick Wakeman - Visions
DYEAR=1995
DGENRE=Progressive Rock
TTITLE0=Fantasy
TTITLE1=Peace of Mind
TTITLE2=Innermost Thoughts
TTITLE3=Vision Of Light
TTITLE4=Higher Planes
TTITLE5=Astral Traveller
TTITLE6=Dream On
TTITLE7=Thought Waves
TTITLE8=Drifting Patterns
TTITLE9=Future Memories
TTITLE10=Levitation
TTITLE11=Moondreams
EXTD=YEAR: 1995
EXTT0=
EXTT1=
EXTT2=
EXTT3=
EXTT4=
EXTT5=
EXTT6=
EXTT7=
EXTT8=
EXTT9=
EXTT10=
EXTT11=
PLAYORDER=
